<svg xmlns="http://www.w3.org/2000/svg" width="23.2" height="22.2" viewBox="0 0 23.2 22.2"><g transform="translate(-0.9 -1.9)"><g transform="translate(-72 -72)"><g transform="translate(73 74)"><path d="M6,1V21H17V1ZM5.5,0h12a.5.5,0,0,1,.5.5v21a.5.5,0,0,1-.5.5H5.5a.5.5,0,0,1-.5-.5V.5A.5.5,0,0,1,5.5,0Z" fill="#545871" stroke="#545871" stroke-width="0.2"/><path d="M1,8V21H5V8ZM.5,7h5a.5.5,0,0,1,.5.5v14a.5.5,0,0,1-.5.5H.5a.5.5,0,0,1-.5-.5V7.5A.5.5,0,0,1,.5,7Z" fill="#545871" stroke="#545871" stroke-width="0.2"/><path d="M18,21h4V8H18ZM17.5,7h5a.5.5,0,0,1,.5.5v14a.5.5,0,0,1-.5.5h-5a.5.5,0,0,1-.5-.5V7.5A.5.5,0,0,1,17.5,7Z" fill="#545871" stroke="#545871" stroke-width="0.2"/><path d="M9,13v8h5V13Zm-.5-1h6a.5.5,0,0,1,.5.5v9a.5.5,0,0,1-.5.5h-6a.5.5,0,0,1-.5-.5v-9A.5.5,0,0,1,8.5,12Z" fill="#545871" stroke="#545871" stroke-width="0.2"/><path d="M3.5,9h-1a.5.5,0,0,0,0,1h1a.5.5,0,0,0,0-1Z" fill="#545871" stroke="#545871" stroke-width="0.2"/><path d="M3.5,11h-1a.5.5,0,0,0,0,1h1a.5.5,0,0,0,0-1Z" fill="#545871" stroke="#545871" stroke-width="0.2"/><path d="M3.5,13h-1a.5.5,0,0,0,0,1h1a.5.5,0,0,0,0-1Z" fill="#545871" stroke="#545871" stroke-width="0.2"/><path d="M3.5,15h-1a.5.5,0,0,0,0,1h1a.5.5,0,0,0,0-1Z" fill="#545871" stroke="#545871" stroke-width="0.2"/><path d="M3.5,17h-1a.5.5,0,0,0,0,1h1a.5.5,0,0,0,0-1Z" fill="#545871" stroke="#545871" stroke-width="0.2"/><path d="M3.5,19h-1a.5.5,0,0,0,0,1h1a.5.5,0,0,0,0-1Z" fill="#545871" stroke="#545871" stroke-width="0.2"/><path d="M20.5,9h-1a.5.5,0,0,0,0,1h1a.5.5,0,0,0,0-1Z" fill="#545871" stroke="#545871" stroke-width="0.2"/><path d="M20.5,11h-1a.5.5,0,0,0,0,1h1a.5.5,0,0,0,0-1Z" fill="#545871" stroke="#545871" stroke-width="0.2"/><path d="M20.5,13h-1a.5.5,0,0,0,0,1h1a.5.5,0,0,0,0-1Z" fill="#545871" stroke="#545871" stroke-width="0.2"/><path d="M20.5,15h-1a.5.5,0,0,0,0,1h1a.5.5,0,0,0,0-1Z" fill="#545871" stroke="#545871" stroke-width="0.2"/><path d="M20.5,17h-1a.5.5,0,0,0,0,1h1a.5.5,0,0,0,0-1Z" fill="#545871" stroke="#545871" stroke-width="0.2"/><path d="M20.5,19h-1a.5.5,0,0,0,0,1h1a.5.5,0,0,0,0-1Z" fill="#545871" stroke="#545871" stroke-width="0.2"/><path d="M13,5h1.5a.5.5,0,0,1,.5.5v2a.5.5,0,0,1-.5.5H13V9.5a.5.5,0,0,1-.5.5h-2a.5.5,0,0,1-.5-.5V8H8.5A.5.5,0,0,1,8,7.5v-2A.5.5,0,0,1,8.5,5H10V3.5a.5.5,0,0,1,.5-.5h2a.5.5,0,0,1,.5.5Zm1,1H12.5a.5.5,0,0,1-.5-.5V4H11V5.5a.5.5,0,0,1-.5.5H9V7h1.5a.5.5,0,0,1,.5.5V9h1V7.5a.5.5,0,0,1,.5-.5H14Z" fill="#545871" stroke="#545871" stroke-width="0.2"/></g></g></g></svg>