<svg xmlns="http://www.w3.org/2000/svg" width="20.139" height="27.58" viewBox="0 0 20.139 27.58"><g transform="translate(-280 -1561)"><g transform="translate(274.069 1558.79)"><path d="M21.864,16.747a2.11,2.11,0,1,0,2.109,2.111A2.113,2.113,0,0,0,21.864,16.747Zm0,2.967a.855.855,0,1,1,.855-.855A.857.857,0,0,1,21.864,19.714Z" fill="#545871"/><rect width="5.345" height="1.15" transform="translate(13.328 6.003)" fill="#545871"/><path d="M10.4,15.085H21.6a2.148,2.148,0,0,0,2.147-2.146V10.2A2.149,2.149,0,0,0,21.6,8.056H10.4A2.149,2.149,0,0,0,8.255,10.2v2.736A2.149,2.149,0,0,0,10.4,15.085ZM9.51,10.2a.894.894,0,0,1,.892-.893H21.6a.893.893,0,0,1,.892.893v2.736a.893.893,0,0,1-.892.893H10.4a.894.894,0,0,1-.892-.893V10.2Z" fill="#545871"/><path d="M10.137,16.747a2.11,2.11,0,1,0,2.11,2.111A2.113,2.113,0,0,0,10.137,16.747Zm0,2.967a.855.855,0,1,1,.855-.855A.857.857,0,0,1,10.137,19.714Z" fill="#545871"/><path d="M25.927,28.765l-4.633-5.646h2.491a2.2,2.2,0,0,0,2.2-2.2V6.323a2.2,2.2,0,0,0-2.2-2.195H18.561a1.2,1.2,0,0,0,.233-.709,1.209,1.209,0,1,0-2.186.709H15.389a1.21,1.21,0,1,0-1.953,0H8.215a2.2,2.2,0,0,0-2.2,2.195v14.6a2.2,2.2,0,0,0,2.2,2.2h2.491L6.073,28.764a.627.627,0,1,0,.969.8l1.065-1.291H23.89l1.064,1.291a.628.628,0,0,0,.973-.8ZM7.273,20.922V6.323a.942.942,0,0,1,.941-.941h15.57a.943.943,0,0,1,.941.941v14.6a.942.942,0,0,1-.941.94H8.215A.942.942,0,0,1,7.273,20.922Zm12.373,2.2.667.811H11.686l.667-.811Zm-10.5,3.9,1.509-1.831h10.7l1.509,1.831Z" fill="#545871"/></g></g></svg>