<svg xmlns="http://www.w3.org/2000/svg" width="43.686" height="32.094" viewBox="0 0 43.686 32.094"><g transform="translate(0.35 0.35)"><path d="M303.513,918.116a.565.565,0,0,1,.242-.512l.022-.016,16.276-11.466A.689.689,0,0,1,320.5,906c.107.008.3.027.559.061.43.056.907.135,1.421.24a19.426,19.426,0,0,1,4.312,1.4,14.8,14.8,0,0,1,1.507.812,13.248,13.248,0,0,1,2.446,1.956,14.745,14.745,0,0,1,2.026,2.561,10.363,10.363,0,0,1,.646,1.172.565.565,0,0,1,.041.116.55.55,0,0,1,.015.153V921.8c4.1,1.659,6.513,3.964,6.513,6.537,0,5.138-9.661,9.056-21.493,9.056S297,933.476,297,928.338c0-2.573,2.411-4.878,6.513-6.537v-3.684Zm3.017-.95,25.311-3.2q-.092-.159-.2-.328a13.533,13.533,0,0,0-1.858-2.349,11.958,11.958,0,0,0-2.209-1.768,13.454,13.454,0,0,0-1.372-.738,18.078,18.078,0,0,0-4.007-1.3c-.479-.1-.923-.172-1.321-.224l-.241-.029Zm-3.017,5.96c-3.349,1.457-5.211,3.325-5.211,5.212,0,4.2,9,7.848,20.191,7.848s20.191-3.65,20.191-7.848c0-1.887-1.862-3.755-5.211-5.212v3.4a.621.621,0,0,1-.563.6l-28.658,3.622a.636.636,0,0,1-.739-.6Zm1.3,2.148v4.183L332.171,926v-4.164a2.286,2.286,0,0,1-.917-.256c-.086-.042-.171-.089-.276-.147l-.25-.143a2.008,2.008,0,0,0-1.4-.352,2.456,2.456,0,0,0-1.453.689,3.691,3.691,0,0,1-2.129.971,3.127,3.127,0,0,1-2.21-.456,1.829,1.829,0,0,0-1.372-.3,2.455,2.455,0,0,0-1.453.689,3.692,3.692,0,0,1-2.129.971,3.127,3.127,0,0,1-2.21-.456,1.83,1.83,0,0,0-1.372-.3,2.455,2.455,0,0,0-1.453.689,3.692,3.692,0,0,1-2.129.971,3.127,3.127,0,0,1-2.21-.456,1.829,1.829,0,0,0-1.372-.3,1.964,1.964,0,0,0-1.252.648l-.058.053a3.091,3.091,0,0,1-1.709.92Zm0-1.245a2.246,2.246,0,0,0,.8-.536l.059-.053a3.207,3.207,0,0,1,1.989-.983,3.127,3.127,0,0,1,2.21.456,1.829,1.829,0,0,0,1.372.3,2.455,2.455,0,0,0,1.453-.689,3.693,3.693,0,0,1,2.129-.971,3.128,3.128,0,0,1,2.21.456,1.829,1.829,0,0,0,1.372.3,2.455,2.455,0,0,0,1.453-.689,3.692,3.692,0,0,1,2.129-.971,3.128,3.128,0,0,1,2.21.456,1.829,1.829,0,0,0,1.372.3,2.454,2.454,0,0,0,1.453-.689,3.692,3.692,0,0,1,2.129-.971,3.3,3.3,0,0,1,2.257.519l.248.142c.084.048.149.083.209.112a1.057,1.057,0,0,0,.3.109v-5.478L304.816,918.6ZM322.4,912.641a1.211,1.211,0,1,1,1.3-1.208A1.258,1.258,0,0,1,322.4,912.641Z" transform="translate(-297 -906)" fill="#545871" stroke="#545871" stroke-width="0.7" fill-rule="evenodd"/></g></svg>