<svg xmlns="http://www.w3.org/2000/svg" width="39.683" height="41.636" viewBox="0 0 39.683 41.636"><g transform="translate(0.35 0.35)"><path d="M588.241,384.243a4.315,4.315,0,0,1-4.161-3.155,2.367,2.367,0,0,1-.852-.154l-.329-.12V360.759a4.258,4.258,0,0,0-1.4-3.15l-.5-.463.6-.339a6.241,6.241,0,0,1,9.12,3.9A2.75,2.75,0,0,1,592.9,363.4a2.719,2.719,0,0,1-.174.962,4.487,4.487,0,0,1,1.719,6.2,5,5,0,0,1,1.719,1.54,4.986,4.986,0,0,1-3.6,7.8v.025A4.334,4.334,0,0,1,588.241,384.243Zm-3.359-4.281.085.508a3.325,3.325,0,0,0,6.6-.548,3.122,3.122,0,0,0-.03-.434l-.075-.588.593.03h.01a3.988,3.988,0,0,0,1.455-7.7l-.623-.244.409-.533a3.489,3.489,0,0,0-1.445-5.4l-.558-.224.319-.508a1.744,1.744,0,0,0-1.361-2.671l-.384-.025-.07-.379a5.243,5.243,0,0,0-7.142-3.857,5.286,5.286,0,0,1,1.226,3.374v19.317a1.537,1.537,0,0,0,.478-.015Z" transform="translate(-558.07 -343.306)" fill="#545871" stroke="#545871" stroke-width="0.7"/><path d="M145.281,374.741H122.35a1.452,1.452,0,0,1-1.45-1.45V351.258A5.262,5.262,0,0,1,126.158,346h15.31a5.261,5.261,0,0,1,5.258,5.258V373.3A1.443,1.443,0,0,1,145.281,374.741ZM126.158,347a4.269,4.269,0,0,0-4.261,4.261V373.3a.455.455,0,0,0,.454.454h22.93a.455.455,0,0,0,.454-.454V351.258A4.268,4.268,0,0,0,141.473,347Z" transform="translate(-120.9 -333.805)" fill="#545871" stroke="#545871" stroke-width="0.7"/><path d="M281.329,253.976H270.4v-3.922a1.957,1.957,0,0,1,1.954-1.954h7.022a1.957,1.957,0,0,1,1.954,1.954Zm-9.933-1h8.936v-2.925a.957.957,0,0,0-.957-.957h-7.022a.957.957,0,0,0-.957.957Z" transform="translate(-262.949 -240.784)" fill="#545871" stroke="#545871" stroke-width="0.7"/><path d="M343.452,109.613H339.4V104a2.7,2.7,0,0,1,2.7-2.7h5.8l-1.3,4.052h-3.15Zm-3.055-1h2.058v-4.261h3.419l.658-2.058H342.1a1.7,1.7,0,0,0-1.7,1.7Z" transform="translate(-328.511 -101.3)" fill="#545871" stroke="#545871" stroke-width="0.7"/><path d="M252.438,512.041h-3.13a.855.855,0,0,1-.852-.852v-3.5h-3.5a.855.855,0,0,1-.852-.852v-3.125a.855.855,0,0,1,.852-.852h3.5v-3.5a.855.855,0,0,1,.852-.852h3.13a.855.855,0,0,1,.852.852v3.5h3.5a.855.855,0,0,1,.852.852v3.13a.855.855,0,0,1-.852.852h-3.5v3.5A.848.848,0,0,1,252.438,512.041Zm-2.98-1h2.836v-4.356h4.356v-2.836h-4.356V499.5h-2.836v4.356H245.1v2.836h4.356Z" transform="translate(-237.96 -478.705)" fill="#545871" stroke="#545871" stroke-width="0.7"/><path d="M566.076,158.347a2.773,2.773,0,1,1,2.776-2.776A2.78,2.78,0,0,1,566.076,158.347Zm0-4.55a1.777,1.777,0,1,0,1.779,1.774A1.779,1.779,0,0,0,566.076,153.8Z" transform="translate(-541.252 -150.233)" fill="#545871" stroke="#545871" stroke-width="0.7"/><path d="M815.737,310.373a1.037,1.037,0,1,1,1.037-1.037A1.036,1.036,0,0,1,815.737,310.373Zm0-1.072a.04.04,0,1,0,.04.04C815.771,309.317,815.757,309.3,815.737,309.3Z" transform="translate(-780.123 -297.984)" fill="#545871" stroke="#545871" stroke-width="0.7"/><path d="M789.094,107.888a1.894,1.894,0,1,1,1.894-1.894A1.9,1.9,0,0,1,789.094,107.888Zm0-2.786a.9.9,0,1,0,.9.9A.9.9,0,0,0,789.094,105.1Z" transform="translate(-753.993 -103.96)" fill="#545871" stroke="#545871" stroke-width="0.7"/><path d="M684.713,670.926a2.113,2.113,0,1,1,2.113-2.113A2.114,2.114,0,0,1,684.713,670.926Zm0-3.229a1.116,1.116,0,1,0,1.116,1.116A1.118,1.118,0,0,0,684.713,667.7Z" transform="translate(-654.606 -638.522)" fill="#545871" stroke="#545871" stroke-width="0.7"/></g></svg>