<svg xmlns="http://www.w3.org/2000/svg" width="33.972" height="33.656" viewBox="0 0 33.972 33.656"><g transform="translate(-13 -7.585)"><path d="M30.187,15.6a1.046,1.046,0,0,0,1,.741.984.984,0,0,0,.306-.046,1.046,1.046,0,0,0,.695-1.306,5.587,5.587,0,0,0-.548-1.147,3.436,3.436,0,0,1-.377-.762,4.068,4.068,0,0,1,.385-.46,5.558,5.558,0,0,0,.548-.653,3.218,3.218,0,0,0-.247-4.085,1.046,1.046,0,0,0-1.523,1.431,1.143,1.143,0,0,1,.054,1.456,4.88,4.88,0,0,1-.364.419,4.939,4.939,0,0,0-.674.837,2.723,2.723,0,0,0,.385,2.854A4.013,4.013,0,0,1,30.187,15.6Z" transform="translate(-9.399 0)" fill="#545871"/><path d="M42.566,15.6a1.046,1.046,0,0,0,1,.741.984.984,0,0,0,.306-.046,1.046,1.046,0,0,0,.695-1.306,7.174,7.174,0,0,0-.347-.883c-.146-.322-.385-.858-.306-.992a3.432,3.432,0,0,1,.419-.494,6,6,0,0,0,.548-.653,3.247,3.247,0,0,0-.544-4.085,1.046,1.046,0,0,0-1.523,1.431c.389.419.636,1.05.352,1.456a4.335,4.335,0,0,1-.368.419,5.14,5.14,0,0,0-.67.837,3.056,3.056,0,0,0,.188,2.93A6.276,6.276,0,0,1,42.566,15.6Z" transform="translate(-16.755)" fill="#545871"/><path d="M54.193,15.624a1.046,1.046,0,0,0,1,.741.984.984,0,0,0,.306-.046,1.046,1.046,0,0,0,.695-1.306,5.587,5.587,0,0,0-.548-1.147,3.436,3.436,0,0,1-.377-.762,4.067,4.067,0,0,1,.385-.46,5.559,5.559,0,0,0,.548-.653,3.223,3.223,0,0,0-.326-4.085,1.046,1.046,0,0,0-1.519,1.431,1.151,1.151,0,0,1,.134,1.456,4.88,4.88,0,0,1-.364.419,4.939,4.939,0,0,0-.674.837,2.723,2.723,0,0,0,.385,2.854A4.015,4.015,0,0,1,54.193,15.624Z" transform="translate(-23.36 -0.026)" fill="#545871"/><path d="M41.112,35.022a4.793,4.793,0,0,0-.489.025v-4A1.046,1.046,0,0,0,39.576,30H14.046A1.046,1.046,0,0,0,13,31.046V44.69a9.593,9.593,0,0,0,9.584,9.584h8.454a9.6,9.6,0,0,0,9.375-7.588,4.913,4.913,0,0,0,.7.054,5.859,5.859,0,1,0,0-11.719ZM31.038,52.182H22.584a7.5,7.5,0,0,1-7.492-7.492v-12.6H38.53v12.6a7.5,7.5,0,0,1-7.492,7.492Zm10.074-7.533a2.834,2.834,0,0,1-.49-.042v-7.45a2.834,2.834,0,0,1,.49-.042,3.767,3.767,0,1,1,0,7.533Z" transform="translate(0 -13.034)" fill="#545871"/></g></svg>