<svg xmlns="http://www.w3.org/2000/svg" width="31.238" height="34.051" viewBox="0 0 31.238 34.051"><g transform="translate(-2.663 -0.975)"><path d="M9.281,9.831A4.353,4.353,0,1,0,4.928,5.478,4.353,4.353,0,0,0,9.281,9.831Zm0-6.456a2.1,2.1,0,1,1-2.1,2.1,2.1,2.1,0,0,1,2.1-2.1Z" fill="#545871" stroke="#fff" stroke-width="0.3"/><path d="M12.375,10.688H6.188a3.379,3.379,0,0,0-3.375,3.375V24.751h2.25V34.876H13.5V24.75h2.25V14.063a3.379,3.379,0,0,0-3.375-3.375ZM13.5,22.5H11.25V32.626H7.312V22.5H5.063V14.063a1.126,1.126,0,0,1,1.125-1.125h6.188A1.126,1.126,0,0,1,13.5,14.063Z" fill="#545871" stroke="#fff" stroke-width="0.3"/><path d="M26.022,9.831a4.353,4.353,0,1,0-4.353-4.353,4.353,4.353,0,0,0,4.353,4.353Zm0-6.456a2.1,2.1,0,1,1-2.1,2.1,2.1,2.1,0,0,1,2.1-2.1Z" fill="#545871" stroke="#fff" stroke-width="0.3"/><path d="M29.936,13.6a4.33,4.33,0,0,0-8.145-.1L17.438,25.109v3.016h4.5v6.75h7.313v-6.75h4.5V24.56ZM31.5,25.875H27v6.75H24.187v-6.75h-4.5v-.359L23.9,14.287a2.08,2.08,0,0,1,3.913.047L31.5,24.94Z" fill="#545871" stroke="#fff" stroke-width="0.3"/></g></svg>