<svg xmlns="http://www.w3.org/2000/svg" width="33.751" height="19.916" viewBox="0 0 33.751 19.916"><g transform="translate(-1.125 -5.625)"><path d="M6,7.436A2.411,2.411,0,0,0,3.375,9.549V21.618A2.411,2.411,0,0,0,6,23.731H21a2.411,2.411,0,0,0,2.626-2.113V9.549A2.411,2.411,0,0,0,21,7.436H6ZM1.125,9.549C1.125,7.382,3.308,5.625,6,5.625H21c2.693,0,4.876,1.757,4.876,3.924V21.618c0,2.167-2.183,3.924-4.876,3.924H6c-2.693,0-4.876-1.757-4.876-3.924Z" fill="#545871" fill-rule="evenodd"/><path d="M25.313,11.432,31.541,8.6a.889.889,0,0,1,.712-.012.564.564,0,0,1,.373.477V22.107c0,.4-.585.694-1.085.466l-6.226-2.835-1.129,1.528L30.412,24.1c1.933.88,4.464-.168,4.464-1.994V9.061c0-1.825-2.531-2.872-4.464-1.993L24.188,9.9l1.129,1.528Z" transform="translate(0 0)" fill="#545871" fill-rule="evenodd"/></g></svg>