<svg xmlns="http://www.w3.org/2000/svg" width="33.08" height="33.166" viewBox="0 0 33.08 33.166"><g transform="translate(-59.8 -32.791)"><g transform="translate(59.8 34.988)"><path d="M65.81,72.032c.3.115.467.074.6-.271A1.885,1.885,0,0,1,68.59,70.5a1.856,1.856,0,0,1,1.509,1.96V83.118a1.886,1.886,0,1,1-3.763,0c0-2.935-.008-5.863.008-8.8,0-.476-.139-.623-.607-.6-.615.033-1.238,0-1.861.008a2.42,2.42,0,0,0-2.46,2.476c-.008,1.074-.008,2.14,0,3.214A2.4,2.4,0,0,0,63.8,81.847c.394.016.787-.016,1.181.016a.782.782,0,0,1,.82.869.767.767,0,0,1-.877.746,10.544,10.544,0,0,1-2.394-.23,3.852,3.852,0,0,1-2.73-3.788V76.189a4,4,0,0,1,3.829-4.083c.131-.008.262-.016.443-.033.041-.484.057-.968.115-1.451A12.219,12.219,0,0,1,88.5,70.5c.057.615-.172.976-.681,1.033-.525.066-.869-.246-.943-.877A10.537,10.537,0,0,0,71.82,62.267c-3.952,1.886-5.9,5.182-6.051,9.552A.7.7,0,0,0,65.81,72.032Zm2.665,5.8c0-1.714.008-3.419-.008-5.133a.14.14,0,0,0-.008-.057.253.253,0,0,0-.5.025v.008q-.025,5.1,0,10.208v.041a.249.249,0,0,0,.492,0c0-.025.008-.049.008-.074C68.483,81.174,68.475,79.5,68.475,77.829Z" transform="translate(-59.8 -59.584)" fill="#545871"/></g><path d="M116.746,48.871a2.856,2.856,0,0,1-1.14-2.8,2.783,2.783,0,0,0-.033-.451A14.4,14.4,0,0,0,94.452,34.53a13.955,13.955,0,0,0-7.511,11.241c-.082.73.2,1.123.738,1.156.525.033.812-.3.877-1.009a12.241,12.241,0,0,1,1.41-4.665,12.771,12.771,0,0,1,24.057,5.805c0,.312-.1.443-.418.435-.64-.016-1.279.016-1.919-.016a.7.7,0,0,1-.476-.336,1.943,1.943,0,0,0-2.148-1.254,1.906,1.906,0,0,0-1.574,1.984q-.025,5.325,0,10.659a1.883,1.883,0,0,0,1.919,2,1.9,1.9,0,0,0,1.886-2.083c.008-1.427,0-2.853,0-4.288,0-1.5.008-3.009-.008-4.51,0-.385.107-.541.508-.525.672.025,1.353-.016,2.033.016a2.383,2.383,0,0,1,2.345,2.4q.025,1.636,0,3.272a2.388,2.388,0,0,1-2.419,2.443c-.41.008-.828-.016-1.238.025a.78.78,0,0,0-.533,1.3,1.353,1.353,0,0,1,.385,1.205c0,.656.008,1.312,0,1.976a1.377,1.377,0,0,1-1.525,1.492q-3.185.012-6.371-.008a.892.892,0,0,1-.59-.3,2.02,2.02,0,0,0-1.664-.8c-.681.008-1.353-.008-2.033,0a1.9,1.9,0,1,0-.033,3.8c.713.016,1.427,0,2.14,0a1.741,1.741,0,0,0,1.509-.738.82.82,0,0,1,.8-.361c2.107.008,4.206.008,6.313,0a2.955,2.955,0,0,0,3.075-3.042c.008-.771.025-1.541-.008-2.312-.016-.418.082-.615.549-.713a3.985,3.985,0,0,0,3.247-3.977c.008-1.107,0-2.214,0-3.329A2.962,2.962,0,0,0,116.746,48.871Zm-7.593-.541a1.257,1.257,0,0,1,.008-.394c.008-.025.025-.057.033-.082a.242.242,0,0,1,.435.008c.008.016.016.025.016.041a.791.791,0,0,1,.008.279V58.16a.784.784,0,0,1-.008.279.332.332,0,0,1-.041.074.243.243,0,0,1-.451-.066v-.041c-.016-1.746-.008-3.493-.008-5.239m-6.863,11.454h-1.951a.566.566,0,1,1,0-1.132h1.951a.566.566,0,1,1,0,1.132Z" transform="translate(-24.903)" fill="#545871"/></g></svg>