<svg xmlns="http://www.w3.org/2000/svg" width="42.304" height="19.551" viewBox="0 0 42.304 19.551"><g transform="translate(25.585 4.809)"><g transform="translate(-25.435 -4.659)"><path d="M39.241,22.75H35.412V21h3.829a1.015,1.015,0,0,0,.781-.359.945.945,0,0,0,.215-.775l-.285-1.678a4.368,4.368,0,0,0-3.777-3.558l-2.532-.516a8.372,8.372,0,0,1-2.923-1.2l-4.169-2.732a8.72,8.72,0,0,0-4.8-1.428H14.641a5.571,5.571,0,0,0-3.287,1.076l-2.1,1.551a8.582,8.582,0,0,1-3.428,1.507l-3.211.632a1.056,1.056,0,0,0-.861,1.02v4.82A1.669,1.669,0,0,0,3.437,21H5.25v1.75H3.437A3.419,3.419,0,0,1,0,19.357v-4.82A2.8,2.8,0,0,1,2.272,11.8l3.211-.632a6.833,6.833,0,0,0,2.728-1.2l2.105-1.554A7.342,7.342,0,0,1,14.641,7h7.112a10.47,10.47,0,0,1,5.758,1.713l4.169,2.732a6.616,6.616,0,0,0,2.314.952l2.462.506a6.1,6.1,0,0,1,5.22,4.991l.285,1.677a2.7,2.7,0,0,1-.6,2.2A2.751,2.751,0,0,1,39.241,22.75Z" transform="translate(0 -7)" fill="#545871" stroke="#545871" stroke-width="0.3"/><path d="M6.375,21.75a4.375,4.375,0,1,1,4.375-4.375A4.38,4.38,0,0,1,6.375,21.75Zm0-7A2.625,2.625,0,1,0,9,17.375,2.628,2.628,0,0,0,6.375,14.75Z" transform="translate(1.5 -2.5)" fill="#545871" stroke="#545871" stroke-width="0.3"/><path d="M20.375,21.75a4.375,4.375,0,1,1,4.375-4.375A4.379,4.379,0,0,1,20.375,21.75Zm0-7A2.625,2.625,0,1,0,23,17.375,2.628,2.628,0,0,0,20.375,14.75Z" transform="translate(12.001 -2.5)" fill="#545871" stroke="#545871" stroke-width="0.3"/><rect width="17.742" height="1.75" transform="translate(11.652 14)" fill="#545871" stroke="#545871" stroke-width="0.3"/></g></g></svg>