<?xml version="1.0" encoding="utf-8"?>
<!-- Generator: Adobe Illustrator 25.2.0, SVG Export Plug-In . SVG Version: 6.00 Build 0)  -->
<svg version="1.1" id="Layer_1" xmlns="http://www.w3.org/2000/svg" xmlns:xlink="http://www.w3.org/1999/xlink" x="0px" y="0px"
	 viewBox="0 0 68.6 109" style="enable-background:new 0 0 68.6 109;" xml:space="preserve">
<style type="text/css">
	.st0{fill:#5A5A5A;}
</style>
<g id="jM5tJT.tif">
	<g>
		<path class="st0" d="M65.5,0.1c3.3,0,3.8,0.7,2.2,3.1c-1.1,1.6-2.8,2.8-4.4,4.1c-0.8,0.7-1.9,1.1-2.7,1.7c-1.7,1.3-1.8,2.7,0,3.9
			c1.2,0.9,2.5,1.6,3.7,2.4c2.3,1.5,4.1,3.4,4.3,6.3c0.1,2.5-0.9,4.4-2.9,5.9c-1.4,1.1-3,2-4.5,3c-2.5,1.7-2.5,3.1,0,4.7
			c1.2,0.8,2.5,1.5,3.8,2.3c4.8,3.3,5,8.6,0.4,12.1c-1.4,1.1-3,1.9-4.4,2.9c-2.1,1.5-2.1,2.8,0,4.3c1.3,0.9,2.7,1.6,4,2.5
			c5,3.5,4.9,9-0.1,12.4c-1.4,1-2.9,1.8-4.3,2.7c-1.7,1.2-1.7,2.6-0.1,3.8c1.1,0.8,2.4,1.5,3.6,2.3c2.2,1.5,4.1,3.2,4.4,6
			c0.3,3.2-1.3,5.4-3.8,7.1c-1.3,0.9-2.6,1.6-3.9,2.4c-2.1,1.4-2,2.9,0.1,4.3c1.4,0.9,3,1.6,4.1,2.7c1.3,1.3,2.4,2.9,3.3,4.5
			c0.5,0.9,0.1,1.6-1.2,1.5c-0.9,0-1.8,0-2.8,0c-0.4,0-0.8-0.1-1.1-0.3c-1.8-1.3-3.5-2.7-5.4-4c-2.1-1.5-3.8-3.2-4-5.9
			c-0.2-2.7,0.9-4.8,3-6.3c1.4-1,3-1.9,4.4-2.9c2.4-1.6,2.4-3,0-4.6c-1.3-0.8-2.6-1.6-3.9-2.5c-5-3.6-4.9-8.9,0.1-12.4
			c1.2-0.9,2.6-1.6,3.9-2.4c2.2-1.5,2.2-2.9,0-4.4c-1.4-0.9-2.8-1.7-4.2-2.7c-4.8-3.5-4.8-8.6,0-12.1c1.3-1,2.8-1.7,4.2-2.7
			c2.2-1.5,2.2-3,0-4.4c-1.4-0.9-2.9-1.7-4.3-2.7c-4.5-3.3-4.5-8.4-0.1-11.8c1.4-1.1,3-1.9,4.4-2.9c2.1-1.4,2.1-2.9,0.1-4.3
			c-1.4-1-3-1.8-4.4-2.9c-4.4-3.2-4.5-8.3-0.2-11.7c1.2-0.9,2.5-1.6,3.7-2.4c0.6-0.4,1.4-0.8,1.7-1.3C63.2,0.1,64.4-0.1,65.5,0.1z"
			/>
		<path class="st0" d="M42.9,53.3c-0.3,15.1-4.6,26.9-13.4,37.2c-1.4,1.7-1.4,1.7-3,0.2c-2.3-2.2-2-1.8-0.3-3.9
			c9.4-11.6,13.1-24.8,11-39.3c-1.4-9.6-5.5-18-12.1-25.4c-1.5-1.7-1.5-1.7,0.2-3.3c0.2-0.2,0.5-0.5,0.7-0.7c0.8-1,1.4-0.8,2.2,0.1
			c6.8,7.4,11.3,15.9,13.3,25.6C42.3,47.5,42.7,51.3,42.9,53.3z"/>
		<path class="st0" d="M31.2,54.1c-0.2,11.3-3.5,20.4-10,28.4c-1.3,1.6-1.5,1.6-3,0.2c-1.9-1.9-2.2-1.5-0.3-4
			c11.5-15,10.9-34.6-1.3-48.9c-0.9-1.1-1.1-1.8,0.1-2.7c0.4-0.3,0.8-0.7,1.1-1.1c0.7-0.8,1.3-0.8,2.1,0c5.6,6.4,9.3,13.6,10.6,21.9
			C30.9,50.3,31,52.8,31.2,54.1z"/>
		<path class="st0" d="M19.5,54.8c-0.1,7.4-2.2,14-6.7,19.8c-1.2,1.6-1.4,1.6-2.9,0.2c-2.4-2.3-1.9-1.9-0.4-4
			c7-10.1,6.5-23.2-1.2-33c-0.4-0.5-0.9-1.5-0.7-1.8c0.8-1,1.8-1.8,2.8-2.6c0.1-0.1,1,0.6,1.4,1C16.9,40.4,19.4,47.3,19.5,54.8z"/>
		<path class="st0" d="M3.2,68.9c-0.8-1-1.7-2-2.3-3.1c-0.3-0.5,0-1.4,0.3-1.9c3.2-5.7,3.3-11.4,0.4-17.1c-0.1-0.2-0.2-0.4-0.3-0.6
			c-1.7-2.8-1.6-2.7,0.7-4.9c0.9-0.8,1.4-0.7,2,0.2c2.2,2.9,3.7,6,4.3,9.5C9.2,57.3,7.9,63.1,3.2,68.9z"/>
	</g>
</g>
</svg>
