<svg id="Layer_1" data-name="Layer 1" xmlns="http://www.w3.org/2000/svg" viewBox="0 0 35.21 33.75"><defs><style>.cls-1{fill:#545871;}</style></defs><g id="windy-dust"><path class="cls-1" d="M27.87,19.57h-1v1.95h1a4.91,4.91,0,1,1,0,9.81h0A4.91,4.91,0,0,1,23,26.91H21.05a6.84,6.84,0,1,0,6.82-7.34Z"/><path class="cls-1" d="M27.87,33.5a7.14,7.14,0,0,1-7.07-6.57l0-.27h2.43l0,.23a4.55,4.55,0,0,0,1.33,2.82,4.61,4.61,0,0,0,3.29,1.37,4.66,4.66,0,1,0,0-9.31H26.65V19.32h1.22a7.09,7.09,0,0,1,0,14.18Zm-6.54-6.34a6.59,6.59,0,1,0,6.54-7.34h-.72v1.45h.72a5.16,5.16,0,1,1,0,10.31,5.14,5.14,0,0,1-5.1-4.42Z"/><rect class="cls-1" x="18.1" y="19.57" width="4.87" height="1.95"/><path class="cls-1" d="M23.21,21.77H17.85V19.32h5.36Zm-4.86-.5h4.36V19.82H18.35Z"/><rect class="cls-1" x="9.3" y="19.57" width="4.87" height="1.95"/><path class="cls-1" d="M14.42,21.77H9.05V19.32h5.37Zm-4.87-.5h4.37V19.82H9.55Z"/><rect class="cls-1" x="0.5" y="19.57" width="4.87" height="1.95"/><path class="cls-1" d="M5.62,21.77H.25V19.32H5.62Zm-4.87-.5H5.12V19.82H.75Z"/><path class="cls-1" d="M31.78,7.34a6.84,6.84,0,0,0-13.66-.5h1.94a4.91,4.91,0,0,1,4.88-4.41h0a4.92,4.92,0,0,1,3.47,1.45,4.9,4.9,0,0,1-3.48,8.36H24v1.94h1A6.85,6.85,0,0,0,31.78,7.34Z"/><path class="cls-1" d="M24.94,14.43H23.71V12h1.21a4.64,4.64,0,0,0,4.67-4.64,4.57,4.57,0,0,0-1.35-3.29,4.65,4.65,0,0,0-6.59,0,4.57,4.57,0,0,0-1.34,2.83l0,.22H17.85l0-.27a7.09,7.09,0,1,1,7.07,7.61Zm-.73-.5h.73a6.59,6.59,0,1,0-6.55-7.34h1.45A5.1,5.1,0,0,1,21.3,3.68a5.15,5.15,0,0,1,7.29,0,5.15,5.15,0,0,1-3.65,8.79h-.73Z"/><rect class="cls-1" x="15.17" y="12.24" width="4.87" height="1.93"/><path class="cls-1" d="M20.28,14.43H14.92V12h5.36Zm-4.86-.5h4.36V12.49H15.42Z"/><rect class="cls-1" x="6.37" y="12.24" width="4.87" height="1.93"/><path class="cls-1" d="M11.48,14.43H6.12V12h5.36Zm-4.86-.5H11V12.49H6.62Z"/></g></svg>