<svg id="Layer_1" data-name="Layer 1" xmlns="http://www.w3.org/2000/svg" viewBox="0 0 34.16 33.6"><defs><style>.cls-1{fill:#545871;}</style></defs><g id="battery-charging"><path class="cls-1" d="M29.53,24.4V22.57h1.83a2.14,2.14,0,0,0,2.14-2.14v-8a2.14,2.14,0,0,0-2.14-2.14H29.53V8.49a2.16,2.16,0,0,0-2.16-2.15h-4.8V8h5.3v4h4v9h-4v4H21.25v1.66h6.12A2.16,2.16,0,0,0,29.53,24.4Z"/><path class="cls-1" d="M27.37,26.81H21V24.65h6.62v-4h4V12.21h-4v-4h-5.3V6.09h5.05a2.4,2.4,0,0,1,2.41,2.4v1.58h1.58a2.39,2.39,0,0,1,2.39,2.39v8a2.39,2.39,0,0,1-2.39,2.39H29.78V24.4A2.41,2.41,0,0,1,27.37,26.81Zm-5.87-.5h5.87a1.92,1.92,0,0,0,1.91-1.91V22.32h2.08a1.89,1.89,0,0,0,1.89-1.89v-8a1.89,1.89,0,0,0-1.89-1.89H29.28V8.49a1.91,1.91,0,0,0-1.91-1.9H22.82V7.74h5.3v4h4v9.47h-4v4H21.5Z"/><path class="cls-1" d="M11,8V6.34H3.5A2.15,2.15,0,0,0,1.35,8.49V24.4A2.16,2.16,0,0,0,3.5,26.56H9.64V24.9H3V8Z"/><path class="cls-1" d="M9.89,26.81H3.5A2.41,2.41,0,0,1,1.1,24.4V8.49a2.4,2.4,0,0,1,2.4-2.4h7.71V8.24h-8V24.65H9.89ZM3.5,6.59a1.9,1.9,0,0,0-1.9,1.9V24.4a1.91,1.91,0,0,0,1.9,1.91H9.39V25.15H2.75V7.74h8V6.59Z"/><polygon class="cls-1" points="12.43 15.63 18.42 8.06 17.14 7.04 8.96 17.27 19.14 17.27 13.73 24.84 15.07 25.8 22.35 15.63 12.43 15.63"/><path class="cls-1" d="M15.13,26.15,13.39,24.9l5.26-7.38H8.44L17.1,6.68,18.77,8,13,15.38h9.88Zm-1.05-1.37.93.67,6.85-9.57H11.91L18.07,8.1l-.89-.71L9.48,17H19.62Z"/></g></svg>