<svg id="Layer_1" data-name="Layer 1" xmlns="http://www.w3.org/2000/svg" viewBox="0 0 33.48 40.2"><defs><style>.cls-1{fill:#545871;}</style></defs><path class="cls-1" d="M25.62,29.92c-.46-.13-.91.27-1.22.63l-.08.13a10.5,10.5,0,0,1-1.49,2.6A11.43,11.43,0,0,1,3.26,30.47,11.45,11.45,0,0,1,9.61,15.59l.09,0a1.44,1.44,0,0,0,.45-.31,1.16,1.16,0,0,0-.1-1.62.93.93,0,0,0-.52-.2,1.48,1.48,0,0,0-.55.13,13.77,13.77,0,0,0-5.51,3.92,13.8,13.8,0,0,0-.31,17.17h0A13.78,13.78,0,0,0,14,39.83a13.63,13.63,0,0,0,1.42-.07,13.93,13.93,0,0,0,10.85-7.89l.08-.3A1.23,1.23,0,0,0,25.62,29.92Z"/><path class="cls-1" d="M12.63,8.3l2.65.9-.18-.87.35-.15A4.42,4.42,0,0,0,18,4.89V4.77A4.43,4.43,0,0,0,13.84.11h-.11A4.3,4.3,0,0,0,9.65,3.63v0A4.39,4.39,0,0,0,12.63,8.3Zm1.92-5.85a2.1,2.1,0,0,1,1.28,2.14l0,.08a2.07,2.07,0,0,1-.44.89,2.23,2.23,0,0,1-2.95.28l-.08-.08a2.15,2.15,0,0,1,0-2.78,2,2,0,0,1,1.42-.73l.52,0v.12Z"/><path class="cls-1" d="M33.55,31.91l-6.31-9.46-.11-.11A1.69,1.69,0,0,0,26.3,22H17.88l-1.5-7.21h10a1.2,1.2,0,0,0,.75-.53,1.15,1.15,0,0,0-.41-1.56,1.23,1.23,0,0,0-.36-.08H16l-.68-3.38H13.05l2.82,14a1.28,1.28,0,0,0,1,.91h8.82l5.93,8.91h0a1.19,1.19,0,0,0,.57.43l.16,0h.28a1.14,1.14,0,0,0,.74-.39,1.08,1.08,0,0,0,.27-.82A.81.81,0,0,0,33.55,31.91Z"/></svg>